<svg xmlns="http://www.w3.org/2000/svg" viewBox="0 0 640 420" role="img" aria-label="Connect X AI preview">
  <defs>
    <linearGradient id="connect-bg" x1="0%" y1="0%" x2="100%" y2="100%">
      <stop offset="0%" stop-color="#0d1528"/>
      <stop offset="50%" stop-color="#111c2e"/>
      <stop offset="100%" stop-color="#0f1f35"/>
    </linearGradient>
    <linearGradient id="connect-accent" x1="0%" y1="0%" x2="100%" y2="100%">
      <stop offset="0%" stop-color="#67e8f9"/>
      <stop offset="100%" stop-color="#8b5cf6"/>
    </linearGradient>
  </defs>
  <rect width="640" height="420" rx="32" fill="#060b14"/>
  <rect x="40" y="44" width="560" height="332" rx="28" fill="url(#connect-bg)" stroke="rgba(255,255,255,0.08)"/>
  <circle cx="512" cy="112" r="92" fill="url(#connect-accent)" opacity="0.18"/>
  <circle cx="146" cy="318" r="112" fill="#ec4899" opacity="0.12"/>
  <rect x="100" y="94" width="440" height="232" rx="24" fill="#0b1424" stroke="rgba(255,255,255,0.08)"/>
  <rect x="134" y="128" width="184" height="158" rx="22" fill="#111c2d" stroke="rgba(255,255,255,0.08)"/>
  <rect x="338" y="128" width="168" height="158" rx="22" fill="#111c2d" stroke="rgba(255,255,255,0.08)"/>
  <rect x="156" y="152" width="82" height="12" rx="6" fill="url(#connect-accent)"/>
  <rect x="156" y="176" width="116" height="10" rx="5" fill="rgba(255,255,255,0.32)"/>
  <rect x="156" y="198" width="97" height="10" rx="5" fill="rgba(255,255,255,0.22)"/>
  <circle cx="410" cy="170" r="30" fill="url(#connect-accent)" opacity="0.85"/>
  <rect x="364" y="220" width="114" height="10" rx="5" fill="rgba(255,255,255,0.3)"/>
  <rect x="364" y="242" width="82" height="10" rx="5" fill="rgba(255,255,255,0.2)"/>
  <path d="M228 288c42 18 90 16 132 0" stroke="url(#connect-accent)" stroke-width="4" stroke-linecap="round"/>
  <text x="108" y="364" fill="rgba(255,255,255,0.94)" font-family="Inter, Arial, sans-serif" font-size="26" font-weight="600">Connect X</text>
</svg>