<svg xmlns="http://www.w3.org/2000/svg" viewBox="0 0 640 420" role="img" aria-label="OS AI preview">
  <defs>
    <linearGradient id="os-bg" x1="0%" y1="0%" x2="100%" y2="100%">
      <stop offset="0%" stop-color="#101c2f"/>
      <stop offset="100%" stop-color="#0c1323"/>
    </linearGradient>
    <linearGradient id="os-accent" x1="0%" y1="0%" x2="100%" y2="100%">
      <stop offset="0%" stop-color="#22d3ee"/>
      <stop offset="100%" stop-color="#6366f1"/>
    </linearGradient>
  </defs>
  <rect width="640" height="420" rx="32" fill="#050911"/>
  <rect x="46" y="46" width="548" height="328" rx="28" fill="url(#os-bg)" stroke="rgba(255,255,255,0.08)"/>
  <rect x="92" y="92" width="456" height="236" rx="24" fill="#0e1728" stroke="rgba(255,255,255,0.08)"/>
  <rect x="120" y="124" width="180" height="140" rx="18" fill="#131f33" stroke="rgba(255,255,255,0.08)"/>
  <rect x="320" y="124" width="200" height="72" rx="18" fill="#131f33" stroke="rgba(255,255,255,0.08)"/>
  <rect x="320" y="212" width="200" height="52" rx="18" fill="#131f33" stroke="rgba(255,255,255,0.08)"/>
  <rect x="150" y="154" width="86" height="12" rx="6" fill="url(#os-accent)"/>
  <rect x="150" y="182" width="120" height="10" rx="5" fill="rgba(255,255,255,0.28)"/>
  <rect x="346" y="150" width="96" height="12" rx="6" fill="#22d3ee"/>
  <rect x="346" y="232" width="74" height="10" rx="5" fill="rgba(255,255,255,0.24)"/>
  <circle cx="470" cy="160" r="28" fill="url(#os-accent)" opacity="0.9"/>
  <text x="92" y="364" fill="rgba(255,255,255,0.94)" font-family="Inter, Arial, sans-serif" font-size="26" font-weight="600">OS AI</text>
</svg>