<svg xmlns="http://www.w3.org/2000/svg" viewBox="0 0 640 420" role="img" aria-label="Threat Watch AI preview">
  <defs>
    <linearGradient id="tw-bg" x1="0%" y1="0%" x2="100%" y2="100%">
      <stop offset="0%" stop-color="#0c111d"/>
      <stop offset="100%" stop-color="#141827"/>
    </linearGradient>
    <linearGradient id="tw-accent" x1="0%" y1="0%" x2="100%" y2="100%">
      <stop offset="0%" stop-color="#fb923c"/>
      <stop offset="100%" stop-color="#ef4444"/>
    </linearGradient>
  </defs>
  <rect width="640" height="420" rx="32" fill="#060b14"/>
  <rect x="42" y="44" width="556" height="332" rx="28" fill="url(#tw-bg)" stroke="rgba(255,255,255,0.08)"/>
  <rect x="102" y="92" width="436" height="236" rx="24" fill="#101627" stroke="rgba(255,255,255,0.08)"/>
  <path d="M320 132l78 36v64c0 48-29 92-78 112-49-20-78-64-78-112v-64l78-36Z" fill="url(#tw-accent)" opacity="0.9"/>
  <path d="M320 152l56 26v50c0 34-20 64-56 84-36-20-56-50-56-84v-50l56-26Z" fill="#0e1627" stroke="rgba(255,255,255,0.2)"/>
  <path d="M306 184h28v54h-28z" fill="#fff" opacity="0.94"/>
  <path d="M300 238h40" stroke="#fff" stroke-width="8" stroke-linecap="round"/>
  <rect x="130" y="164" width="96" height="12" rx="6" fill="rgba(255,255,255,0.24)"/>
  <rect x="130" y="188" width="64" height="10" rx="5" fill="rgba(255,255,255,0.16)"/>
  <rect x="420" y="164" width="88" height="12" rx="6" fill="rgba(255,255,255,0.24)"/>
  <rect x="420" y="188" width="70" height="10" rx="5" fill="rgba(255,255,255,0.16)"/>
  <text x="104" y="364" fill="rgba(255,255,255,0.94)" font-family="Inter, Arial, sans-serif" font-size="26" font-weight="600">Threat Watch</text>
</svg>